<svg width="24" height="24" viewBox="0 0 24 24" fill="none" xmlns="http://www.w3.org/2000/svg">
<g clip-path="url(#clip0_7326_4141)">
<path d="M11.9936 0L1.5 6V18L11.9936 24L22.4871 18V6L11.9936 0ZM11.9936 0L1.5 6V18L11.9936 24L22.4871 18V6L11.9936 0Z" fill="white"/>
<path d="M16.1363 19.3125H14.6432L12.8557 17.6875V16.8542L14.7063 15.1042V12.3333L17.1247 10.7708L19.8795 12.8333L16.1363 19.3125ZM9.95372 14.9375L10.2271 12.3333L9.32285 10H14.6643L13.781 12.3333L14.0334 14.9375H11.9725H9.95372ZM11.1734 17.6875L9.38594 19.3333H7.87184L4.10762 12.8333L6.88347 10.7917L9.32285 12.3333V15.1042L11.1734 16.8542V17.6875ZM7.85081 5.1875H16.1153L17.1036 9.35417H6.88347L7.85081 5.1875ZM11.9936 0L1.5 6V18L11.9936 24L22.4871 18V6L11.9936 0Z" fill="#03316C"/>
</g>
<defs>
<clipPath id="clip0_7326_4141">
<rect width="21" height="24" fill="white" transform="translate(1.5)"/>
</clipPath>
</defs>
</svg>
