<svg width="24" height="24" viewBox="0 0 24 24" fill="none" xmlns="http://www.w3.org/2000/svg">
<g clip-path="url(#clip0_15692_14342)">
<rect width="24" height="24" fill="#0E131D"/>
<rect width="24" height="24" fill="url(#paint0_radial_15692_14342)"/>
<mask id="path-3-outside-1_15692_14342" maskUnits="userSpaceOnUse" x="1.08984" y="-3.69049" width="30" height="31" fill="black">
<rect fill="white" x="1.08984" y="-3.69049" width="30" height="31"/>
<path d="M14.8005 3.6052C15.3395 2.97238 15.1286 2.03488 15.1286 2.03488L13.5583 4.3552C13.5349 4.3552 14.1208 4.37863 14.8005 3.6052Z"/>
<path d="M9.52703 16.2849L9.71453 15.3474C9.71453 15.3474 8.9411 16.7068 8.87078 16.8943C8.80047 17.1052 8.91766 17.4802 9.22235 17.4568C9.52703 17.4334 9.90203 16.9881 9.90203 16.6599C9.90203 16.2381 9.52703 16.2849 9.52703 16.2849Z"/>
<path d="M23.4489 1.37866C23.4489 1.37866 24.6208 1.42554 25.8395 1.56616C23.0973 -0.590089 20.4958 -1.2229 18.3864 -1.2229C15.4801 -1.2229 13.5114 -0.0275881 13.3942 0.0427244L14.3083 -1.4104C14.3083 -1.4104 11.1911 -4.66406 9.90203 -0.796869C9.57391 -1.61718 8.73015 0.0895994 8.73015 0.0895994C8.73015 0.0895994 6.83172 1.75366 7.72234 4.51929C5.54265 3.72241 2.42547 2.62085 2.30828 2.59741C2.14422 2.57397 2.09734 2.64429 2.09734 2.64429C2.09734 2.64429 2.05047 2.7146 2.19109 2.83179C2.44891 3.04272 7.37078 6.67554 8.4489 7.37866C8.21453 8.22241 8.21453 8.62085 8.4489 9.01929C8.77703 9.55835 8.80047 9.8396 8.75359 10.238C8.70672 10.6365 8.28484 14.0818 8.19109 14.5037C8.09734 14.9255 7.11297 16.4255 7.15984 16.8708C7.20672 17.3162 7.81609 19.2146 8.35515 19.4255C8.75359 19.5662 9.73797 19.8708 10.3942 19.8708C10.6286 19.8708 10.8395 19.824 10.9333 19.7302C11.3317 19.3787 11.4489 19.3083 11.7302 19.3083C11.7536 19.3083 11.777 19.3083 11.8005 19.3083C11.9177 19.3083 12.0583 19.3318 12.2223 19.3318C12.5973 19.3318 13.0895 19.2615 13.4411 18.9333C13.9567 18.4177 14.8473 17.7146 15.1286 17.3865C15.4802 16.9412 15.6677 16.3318 15.5739 15.7224C15.5036 15.1599 15.8083 14.6677 16.1598 14.1755C16.6052 13.5896 17.4255 12.5349 17.4255 12.5349C19.0427 13.7537 20.0505 15.6052 20.0505 17.6677C20.0505 21.324 16.863 24.5583 12.9255 24.5583C12.3161 24.5583 12.3161 26.6484 11.7302 26.5078C13.5348 27.1406 14.4723 24.9099 15.7145 24.9099C18.363 24.9099 18.9133 24.2771 18.9133 24.2771C18.9133 24.2771 19.277 24.5818 18.4802 25.3083C18.5036 25.3083 18.5036 25.3083 18.5036 25.3083C22.8864 24.699 25.0192 21.0896 25.0192 21.0896C25.0192 21.0896 24.8551 22.2615 24.6442 23.0583C30.4801 18.6755 29.4958 13.1912 29.4723 13.0037C29.5192 13.074 30.1051 13.7771 30.4098 14.1521C31.3473 4.49585 23.4489 1.37866 23.4489 1.37866ZM14.4723 16.8005C14.3786 16.9177 13.9802 17.2693 13.6989 17.5271C13.4177 17.7849 13.113 18.0427 12.8786 18.2771C12.7848 18.3708 12.5973 18.4177 12.3161 18.4177C12.2223 18.4177 12.1286 18.4177 12.0583 18.4177C12.0114 18.4177 11.9645 18.4177 11.9177 18.4177C11.8708 18.4177 11.8473 18.4177 11.8239 18.4177C11.7536 18.4177 11.6833 18.4177 11.613 18.4177C11.9645 17.949 12.9958 16.8708 13.3473 16.6365C13.7692 16.3552 13.9802 16.074 13.7223 15.5818C13.4645 15.0896 12.7848 15.2068 12.7848 15.2068C12.7848 15.2068 13.1833 15.0427 13.5348 15.0427C13.0895 14.9255 12.527 15.0427 12.2692 15.3005C11.988 15.5583 12.0348 16.4724 11.9177 17.0583C11.8005 17.6677 11.402 17.9724 10.7927 18.5349C10.4645 18.8396 10.2302 18.9333 10.0427 18.9333C9.64422 18.863 9.17547 18.7458 8.84734 18.6287C8.61297 18.324 8.2614 17.3162 8.16765 16.8943C8.23797 16.6599 8.51922 16.1677 8.65984 15.8865C8.94109 15.3474 9.10515 15.0427 9.15203 14.7615C9.24578 14.363 9.55047 11.9021 9.66765 10.8708C9.97234 11.2693 10.3942 11.9255 10.3005 12.3474C10.9802 11.3865 10.488 10.449 10.2536 10.074C10.0427 9.69898 9.7614 8.94897 9.99578 8.1521C10.2302 7.35522 11.0739 5.1521 11.0739 5.1521C11.0739 5.1521 11.3552 5.64429 11.7536 5.55054C12.152 5.45679 15.363 0.628661 15.363 0.628661C15.363 0.628661 16.2302 2.5271 15.3161 3.90991C14.3786 5.29272 13.4645 5.55054 13.4645 5.55054C13.4645 5.55054 14.7536 5.78491 15.9489 4.91772C16.4411 6.06616 16.9098 7.26147 16.9333 7.42554C16.863 7.5896 15.9255 9.8396 15.8317 9.98023C15.7848 10.0271 15.4567 10.1209 15.2223 10.1677C14.8239 10.2849 14.5895 10.3552 14.4958 10.4255C14.3317 10.5662 13.5817 12.6287 13.2302 13.6365C12.8083 13.7537 12.3864 13.988 12.0817 14.4568C12.2458 14.3396 12.7614 14.2693 13.1364 14.2224C13.4645 14.199 14.4723 14.738 14.7302 15.7458C14.7302 15.7693 14.7302 15.7693 14.7302 15.7927C14.777 16.1677 14.6598 16.5193 14.4723 16.8005ZM12.2692 17.0818C12.4802 16.7771 12.4567 16.2615 12.4802 16.0974C12.5036 15.9333 12.5505 15.6287 12.738 15.5818C12.9255 15.5349 13.3708 15.6052 13.3708 15.9333C13.3708 16.238 13.0427 16.3083 12.8083 16.5193C12.6442 16.6833 12.3161 17.0349 12.2692 17.0818ZM21.6208 12.6052C21.8551 11.4099 21.8786 10.3787 21.8083 9.53491C22.7223 10.7537 23.2848 12.2302 23.4489 13.7537C23.4723 13.9412 23.6598 14.1287 23.8473 14.3162C24.0114 14.4568 24.1989 14.6443 24.1989 14.7615C24.1989 15.3005 24.152 15.8396 24.0583 16.3787C24.0348 16.449 23.8239 16.5662 23.6598 16.6599C23.4255 16.7771 23.2145 16.8943 23.1676 17.0818C22.652 18.8865 21.5505 20.4802 20.0739 21.6052C22.2536 19.3318 23.3083 15.5818 21.6208 12.6052ZM20.1442 21.8162C21.6676 20.6443 22.8395 19.0037 23.3551 17.1521C23.3786 17.0818 23.5895 16.9646 23.7301 16.8708C23.9645 16.7537 24.1989 16.613 24.2458 16.4255C24.3395 15.8865 24.3864 15.324 24.3864 14.7615C24.3864 14.5505 24.1755 14.3396 23.9645 14.1287C23.8473 13.988 23.6598 13.824 23.6598 13.7068C23.4723 11.9958 22.7926 10.3787 21.738 9.04272C21.2692 6.23022 19.3942 5.36304 19.3473 5.3396C19.3942 5.40991 20.613 7.16772 19.7692 9.23022C18.902 11.3162 16.6755 10.988 16.488 11.0115C16.3005 11.0115 15.5739 11.949 14.6598 13.6833C14.5427 13.6365 14.0505 13.5193 13.488 13.613C13.9098 12.4412 14.5427 10.7771 14.6598 10.6365C14.7067 10.5896 15.0583 10.4959 15.2927 10.4255C15.738 10.3084 15.9489 10.238 16.0192 10.1443C16.0661 10.074 16.3005 9.53491 16.5348 8.97241C16.7458 8.97241 17.2848 8.92554 17.3317 8.9021C17.3786 8.85522 17.8239 7.70679 17.8239 7.56616C17.8239 7.44897 16.9098 5.17554 16.5583 4.30835C16.7223 4.12085 16.8864 3.88647 17.0505 3.62866C21.8551 4.14429 25.6051 8.22241 25.6051 13.1677C25.6051 16.9646 23.3786 20.2693 20.1442 21.8162Z"/>
<path d="M13.9098 9.1599C14.3552 8.64428 14.1208 7.68334 13.3005 7.51928C13.5114 7.02709 13.8161 6.04272 13.8161 6.04272C13.8161 6.04272 11.4255 9.79272 11.2145 9.86303C11.0036 9.93334 10.7927 9.11303 10.7927 9.11303C10.3473 10.824 11.5427 11.0583 11.6833 10.5193C12.3395 10.3552 13.4645 9.65209 13.9098 9.1599Z"/>
</mask>
<path d="M14.8005 3.6052C15.3395 2.97238 15.1286 2.03488 15.1286 2.03488L13.5583 4.3552C13.5349 4.3552 14.1208 4.37863 14.8005 3.6052Z" fill="url(#paint1_linear_15692_14342)"/>
<path d="M9.52703 16.2849L9.71453 15.3474C9.71453 15.3474 8.9411 16.7068 8.87078 16.8943C8.80047 17.1052 8.91766 17.4802 9.22235 17.4568C9.52703 17.4334 9.90203 16.9881 9.90203 16.6599C9.90203 16.2381 9.52703 16.2849 9.52703 16.2849Z" fill="url(#paint2_linear_15692_14342)"/>
<path d="M23.4489 1.37866C23.4489 1.37866 24.6208 1.42554 25.8395 1.56616C23.0973 -0.590089 20.4958 -1.2229 18.3864 -1.2229C15.4801 -1.2229 13.5114 -0.0275881 13.3942 0.0427244L14.3083 -1.4104C14.3083 -1.4104 11.1911 -4.66406 9.90203 -0.796869C9.57391 -1.61718 8.73015 0.0895994 8.73015 0.0895994C8.73015 0.0895994 6.83172 1.75366 7.72234 4.51929C5.54265 3.72241 2.42547 2.62085 2.30828 2.59741C2.14422 2.57397 2.09734 2.64429 2.09734 2.64429C2.09734 2.64429 2.05047 2.7146 2.19109 2.83179C2.44891 3.04272 7.37078 6.67554 8.4489 7.37866C8.21453 8.22241 8.21453 8.62085 8.4489 9.01929C8.77703 9.55835 8.80047 9.8396 8.75359 10.238C8.70672 10.6365 8.28484 14.0818 8.19109 14.5037C8.09734 14.9255 7.11297 16.4255 7.15984 16.8708C7.20672 17.3162 7.81609 19.2146 8.35515 19.4255C8.75359 19.5662 9.73797 19.8708 10.3942 19.8708C10.6286 19.8708 10.8395 19.824 10.9333 19.7302C11.3317 19.3787 11.4489 19.3083 11.7302 19.3083C11.7536 19.3083 11.777 19.3083 11.8005 19.3083C11.9177 19.3083 12.0583 19.3318 12.2223 19.3318C12.5973 19.3318 13.0895 19.2615 13.4411 18.9333C13.9567 18.4177 14.8473 17.7146 15.1286 17.3865C15.4802 16.9412 15.6677 16.3318 15.5739 15.7224C15.5036 15.1599 15.8083 14.6677 16.1598 14.1755C16.6052 13.5896 17.4255 12.5349 17.4255 12.5349C19.0427 13.7537 20.0505 15.6052 20.0505 17.6677C20.0505 21.324 16.863 24.5583 12.9255 24.5583C12.3161 24.5583 12.3161 26.6484 11.7302 26.5078C13.5348 27.1406 14.4723 24.9099 15.7145 24.9099C18.363 24.9099 18.9133 24.2771 18.9133 24.2771C18.9133 24.2771 19.277 24.5818 18.4802 25.3083C18.5036 25.3083 18.5036 25.3083 18.5036 25.3083C22.8864 24.699 25.0192 21.0896 25.0192 21.0896C25.0192 21.0896 24.8551 22.2615 24.6442 23.0583C30.4801 18.6755 29.4958 13.1912 29.4723 13.0037C29.5192 13.074 30.1051 13.7771 30.4098 14.1521C31.3473 4.49585 23.4489 1.37866 23.4489 1.37866ZM14.4723 16.8005C14.3786 16.9177 13.9802 17.2693 13.6989 17.5271C13.4177 17.7849 13.113 18.0427 12.8786 18.2771C12.7848 18.3708 12.5973 18.4177 12.3161 18.4177C12.2223 18.4177 12.1286 18.4177 12.0583 18.4177C12.0114 18.4177 11.9645 18.4177 11.9177 18.4177C11.8708 18.4177 11.8473 18.4177 11.8239 18.4177C11.7536 18.4177 11.6833 18.4177 11.613 18.4177C11.9645 17.949 12.9958 16.8708 13.3473 16.6365C13.7692 16.3552 13.9802 16.074 13.7223 15.5818C13.4645 15.0896 12.7848 15.2068 12.7848 15.2068C12.7848 15.2068 13.1833 15.0427 13.5348 15.0427C13.0895 14.9255 12.527 15.0427 12.2692 15.3005C11.988 15.5583 12.0348 16.4724 11.9177 17.0583C11.8005 17.6677 11.402 17.9724 10.7927 18.5349C10.4645 18.8396 10.2302 18.9333 10.0427 18.9333C9.64422 18.863 9.17547 18.7458 8.84734 18.6287C8.61297 18.324 8.2614 17.3162 8.16765 16.8943C8.23797 16.6599 8.51922 16.1677 8.65984 15.8865C8.94109 15.3474 9.10515 15.0427 9.15203 14.7615C9.24578 14.363 9.55047 11.9021 9.66765 10.8708C9.97234 11.2693 10.3942 11.9255 10.3005 12.3474C10.9802 11.3865 10.488 10.449 10.2536 10.074C10.0427 9.69898 9.7614 8.94897 9.99578 8.1521C10.2302 7.35522 11.0739 5.1521 11.0739 5.1521C11.0739 5.1521 11.3552 5.64429 11.7536 5.55054C12.152 5.45679 15.363 0.628661 15.363 0.628661C15.363 0.628661 16.2302 2.5271 15.3161 3.90991C14.3786 5.29272 13.4645 5.55054 13.4645 5.55054C13.4645 5.55054 14.7536 5.78491 15.9489 4.91772C16.4411 6.06616 16.9098 7.26147 16.9333 7.42554C16.863 7.5896 15.9255 9.8396 15.8317 9.98023C15.7848 10.0271 15.4567 10.1209 15.2223 10.1677C14.8239 10.2849 14.5895 10.3552 14.4958 10.4255C14.3317 10.5662 13.5817 12.6287 13.2302 13.6365C12.8083 13.7537 12.3864 13.988 12.0817 14.4568C12.2458 14.3396 12.7614 14.2693 13.1364 14.2224C13.4645 14.199 14.4723 14.738 14.7302 15.7458C14.7302 15.7693 14.7302 15.7693 14.7302 15.7927C14.777 16.1677 14.6598 16.5193 14.4723 16.8005ZM12.2692 17.0818C12.4802 16.7771 12.4567 16.2615 12.4802 16.0974C12.5036 15.9333 12.5505 15.6287 12.738 15.5818C12.9255 15.5349 13.3708 15.6052 13.3708 15.9333C13.3708 16.238 13.0427 16.3083 12.8083 16.5193C12.6442 16.6833 12.3161 17.0349 12.2692 17.0818ZM21.6208 12.6052C21.8551 11.4099 21.8786 10.3787 21.8083 9.53491C22.7223 10.7537 23.2848 12.2302 23.4489 13.7537C23.4723 13.9412 23.6598 14.1287 23.8473 14.3162C24.0114 14.4568 24.1989 14.6443 24.1989 14.7615C24.1989 15.3005 24.152 15.8396 24.0583 16.3787C24.0348 16.449 23.8239 16.5662 23.6598 16.6599C23.4255 16.7771 23.2145 16.8943 23.1676 17.0818C22.652 18.8865 21.5505 20.4802 20.0739 21.6052C22.2536 19.3318 23.3083 15.5818 21.6208 12.6052ZM20.1442 21.8162C21.6676 20.6443 22.8395 19.0037 23.3551 17.1521C23.3786 17.0818 23.5895 16.9646 23.7301 16.8708C23.9645 16.7537 24.1989 16.613 24.2458 16.4255C24.3395 15.8865 24.3864 15.324 24.3864 14.7615C24.3864 14.5505 24.1755 14.3396 23.9645 14.1287C23.8473 13.988 23.6598 13.824 23.6598 13.7068C23.4723 11.9958 22.7926 10.3787 21.738 9.04272C21.2692 6.23022 19.3942 5.36304 19.3473 5.3396C19.3942 5.40991 20.613 7.16772 19.7692 9.23022C18.902 11.3162 16.6755 10.988 16.488 11.0115C16.3005 11.0115 15.5739 11.949 14.6598 13.6833C14.5427 13.6365 14.0505 13.5193 13.488 13.613C13.9098 12.4412 14.5427 10.7771 14.6598 10.6365C14.7067 10.5896 15.0583 10.4959 15.2927 10.4255C15.738 10.3084 15.9489 10.238 16.0192 10.1443C16.0661 10.074 16.3005 9.53491 16.5348 8.97241C16.7458 8.97241 17.2848 8.92554 17.3317 8.9021C17.3786 8.85522 17.8239 7.70679 17.8239 7.56616C17.8239 7.44897 16.9098 5.17554 16.5583 4.30835C16.7223 4.12085 16.8864 3.88647 17.0505 3.62866C21.8551 4.14429 25.6051 8.22241 25.6051 13.1677C25.6051 16.9646 23.3786 20.2693 20.1442 21.8162Z" fill="url(#paint3_linear_15692_14342)"/>
<path d="M13.9098 9.1599C14.3552 8.64428 14.1208 7.68334 13.3005 7.51928C13.5114 7.02709 13.8161 6.04272 13.8161 6.04272C13.8161 6.04272 11.4255 9.79272 11.2145 9.86303C11.0036 9.93334 10.7927 9.11303 10.7927 9.11303C10.3473 10.824 11.5427 11.0583 11.6833 10.5193C12.3395 10.3552 13.4645 9.65209 13.9098 9.1599Z" fill="url(#paint4_linear_15692_14342)"/>
<path d="M14.8005 3.6052C15.3395 2.97238 15.1286 2.03488 15.1286 2.03488L13.5583 4.3552C13.5349 4.3552 14.1208 4.37863 14.8005 3.6052Z" stroke="url(#paint5_linear_15692_14342)" stroke-width="1.125" stroke-linejoin="round" mask="url(#path-3-outside-1_15692_14342)"/>
<path d="M9.52703 16.2849L9.71453 15.3474C9.71453 15.3474 8.9411 16.7068 8.87078 16.8943C8.80047 17.1052 8.91766 17.4802 9.22235 17.4568C9.52703 17.4334 9.90203 16.9881 9.90203 16.6599C9.90203 16.2381 9.52703 16.2849 9.52703 16.2849Z" stroke="url(#paint6_linear_15692_14342)" stroke-width="1.125" stroke-linejoin="round" mask="url(#path-3-outside-1_15692_14342)"/>
<path d="M23.4489 1.37866C23.4489 1.37866 24.6208 1.42554 25.8395 1.56616C23.0973 -0.590089 20.4958 -1.2229 18.3864 -1.2229C15.4801 -1.2229 13.5114 -0.0275881 13.3942 0.0427244L14.3083 -1.4104C14.3083 -1.4104 11.1911 -4.66406 9.90203 -0.796869C9.57391 -1.61718 8.73015 0.0895994 8.73015 0.0895994C8.73015 0.0895994 6.83172 1.75366 7.72234 4.51929C5.54265 3.72241 2.42547 2.62085 2.30828 2.59741C2.14422 2.57397 2.09734 2.64429 2.09734 2.64429C2.09734 2.64429 2.05047 2.7146 2.19109 2.83179C2.44891 3.04272 7.37078 6.67554 8.4489 7.37866C8.21453 8.22241 8.21453 8.62085 8.4489 9.01929C8.77703 9.55835 8.80047 9.8396 8.75359 10.238C8.70672 10.6365 8.28484 14.0818 8.19109 14.5037C8.09734 14.9255 7.11297 16.4255 7.15984 16.8708C7.20672 17.3162 7.81609 19.2146 8.35515 19.4255C8.75359 19.5662 9.73797 19.8708 10.3942 19.8708C10.6286 19.8708 10.8395 19.824 10.9333 19.7302C11.3317 19.3787 11.4489 19.3083 11.7302 19.3083C11.7536 19.3083 11.777 19.3083 11.8005 19.3083C11.9177 19.3083 12.0583 19.3318 12.2223 19.3318C12.5973 19.3318 13.0895 19.2615 13.4411 18.9333C13.9567 18.4177 14.8473 17.7146 15.1286 17.3865C15.4802 16.9412 15.6677 16.3318 15.5739 15.7224C15.5036 15.1599 15.8083 14.6677 16.1598 14.1755C16.6052 13.5896 17.4255 12.5349 17.4255 12.5349C19.0427 13.7537 20.0505 15.6052 20.0505 17.6677C20.0505 21.324 16.863 24.5583 12.9255 24.5583C12.3161 24.5583 12.3161 26.6484 11.7302 26.5078C13.5348 27.1406 14.4723 24.9099 15.7145 24.9099C18.363 24.9099 18.9133 24.2771 18.9133 24.2771C18.9133 24.2771 19.277 24.5818 18.4802 25.3083C18.5036 25.3083 18.5036 25.3083 18.5036 25.3083C22.8864 24.699 25.0192 21.0896 25.0192 21.0896C25.0192 21.0896 24.8551 22.2615 24.6442 23.0583C30.4801 18.6755 29.4958 13.1912 29.4723 13.0037C29.5192 13.074 30.1051 13.7771 30.4098 14.1521C31.3473 4.49585 23.4489 1.37866 23.4489 1.37866ZM14.4723 16.8005C14.3786 16.9177 13.9802 17.2693 13.6989 17.5271C13.4177 17.7849 13.113 18.0427 12.8786 18.2771C12.7848 18.3708 12.5973 18.4177 12.3161 18.4177C12.2223 18.4177 12.1286 18.4177 12.0583 18.4177C12.0114 18.4177 11.9645 18.4177 11.9177 18.4177C11.8708 18.4177 11.8473 18.4177 11.8239 18.4177C11.7536 18.4177 11.6833 18.4177 11.613 18.4177C11.9645 17.949 12.9958 16.8708 13.3473 16.6365C13.7692 16.3552 13.9802 16.074 13.7223 15.5818C13.4645 15.0896 12.7848 15.2068 12.7848 15.2068C12.7848 15.2068 13.1833 15.0427 13.5348 15.0427C13.0895 14.9255 12.527 15.0427 12.2692 15.3005C11.988 15.5583 12.0348 16.4724 11.9177 17.0583C11.8005 17.6677 11.402 17.9724 10.7927 18.5349C10.4645 18.8396 10.2302 18.9333 10.0427 18.9333C9.64422 18.863 9.17547 18.7458 8.84734 18.6287C8.61297 18.324 8.2614 17.3162 8.16765 16.8943C8.23797 16.6599 8.51922 16.1677 8.65984 15.8865C8.94109 15.3474 9.10515 15.0427 9.15203 14.7615C9.24578 14.363 9.55047 11.9021 9.66765 10.8708C9.97234 11.2693 10.3942 11.9255 10.3005 12.3474C10.9802 11.3865 10.488 10.449 10.2536 10.074C10.0427 9.69898 9.7614 8.94897 9.99578 8.1521C10.2302 7.35522 11.0739 5.1521 11.0739 5.1521C11.0739 5.1521 11.3552 5.64429 11.7536 5.55054C12.152 5.45679 15.363 0.628661 15.363 0.628661C15.363 0.628661 16.2302 2.5271 15.3161 3.90991C14.3786 5.29272 13.4645 5.55054 13.4645 5.55054C13.4645 5.55054 14.7536 5.78491 15.9489 4.91772C16.4411 6.06616 16.9098 7.26147 16.9333 7.42554C16.863 7.5896 15.9255 9.8396 15.8317 9.98023C15.7848 10.0271 15.4567 10.1209 15.2223 10.1677C14.8239 10.2849 14.5895 10.3552 14.4958 10.4255C14.3317 10.5662 13.5817 12.6287 13.2302 13.6365C12.8083 13.7537 12.3864 13.988 12.0817 14.4568C12.2458 14.3396 12.7614 14.2693 13.1364 14.2224C13.4645 14.199 14.4723 14.738 14.7302 15.7458C14.7302 15.7693 14.7302 15.7693 14.7302 15.7927C14.777 16.1677 14.6598 16.5193 14.4723 16.8005ZM12.2692 17.0818C12.4802 16.7771 12.4567 16.2615 12.4802 16.0974C12.5036 15.9333 12.5505 15.6287 12.738 15.5818C12.9255 15.5349 13.3708 15.6052 13.3708 15.9333C13.3708 16.238 13.0427 16.3083 12.8083 16.5193C12.6442 16.6833 12.3161 17.0349 12.2692 17.0818ZM21.6208 12.6052C21.8551 11.4099 21.8786 10.3787 21.8083 9.53491C22.7223 10.7537 23.2848 12.2302 23.4489 13.7537C23.4723 13.9412 23.6598 14.1287 23.8473 14.3162C24.0114 14.4568 24.1989 14.6443 24.1989 14.7615C24.1989 15.3005 24.152 15.8396 24.0583 16.3787C24.0348 16.449 23.8239 16.5662 23.6598 16.6599C23.4255 16.7771 23.2145 16.8943 23.1676 17.0818C22.652 18.8865 21.5505 20.4802 20.0739 21.6052C22.2536 19.3318 23.3083 15.5818 21.6208 12.6052ZM20.1442 21.8162C21.6676 20.6443 22.8395 19.0037 23.3551 17.1521C23.3786 17.0818 23.5895 16.9646 23.7301 16.8708C23.9645 16.7537 24.1989 16.613 24.2458 16.4255C24.3395 15.8865 24.3864 15.324 24.3864 14.7615C24.3864 14.5505 24.1755 14.3396 23.9645 14.1287C23.8473 13.988 23.6598 13.824 23.6598 13.7068C23.4723 11.9958 22.7926 10.3787 21.738 9.04272C21.2692 6.23022 19.3942 5.36304 19.3473 5.3396C19.3942 5.40991 20.613 7.16772 19.7692 9.23022C18.902 11.3162 16.6755 10.988 16.488 11.0115C16.3005 11.0115 15.5739 11.949 14.6598 13.6833C14.5427 13.6365 14.0505 13.5193 13.488 13.613C13.9098 12.4412 14.5427 10.7771 14.6598 10.6365C14.7067 10.5896 15.0583 10.4959 15.2927 10.4255C15.738 10.3084 15.9489 10.238 16.0192 10.1443C16.0661 10.074 16.3005 9.53491 16.5348 8.97241C16.7458 8.97241 17.2848 8.92554 17.3317 8.9021C17.3786 8.85522 17.8239 7.70679 17.8239 7.56616C17.8239 7.44897 16.9098 5.17554 16.5583 4.30835C16.7223 4.12085 16.8864 3.88647 17.0505 3.62866C21.8551 4.14429 25.6051 8.22241 25.6051 13.1677C25.6051 16.9646 23.3786 20.2693 20.1442 21.8162Z" stroke="url(#paint7_linear_15692_14342)" stroke-width="1.125" stroke-linejoin="round" mask="url(#path-3-outside-1_15692_14342)"/>
<path d="M13.9098 9.1599C14.3552 8.64428 14.1208 7.68334 13.3005 7.51928C13.5114 7.02709 13.8161 6.04272 13.8161 6.04272C13.8161 6.04272 11.4255 9.79272 11.2145 9.86303C11.0036 9.93334 10.7927 9.11303 10.7927 9.11303C10.3473 10.824 11.5427 11.0583 11.6833 10.5193C12.3395 10.3552 13.4645 9.65209 13.9098 9.1599Z" stroke="url(#paint8_linear_15692_14342)" stroke-width="1.125" stroke-linejoin="round" mask="url(#path-3-outside-1_15692_14342)"/>
<path d="M8.84765 13.3084L9.59765 7.65994L3.08203 3.13651L9.03515 5.15213L10.4414 2.99588L15.5742 -0.19162L26.8945 6.04276L27.4805 15.5584L22.4414 22.5662L18.457 23.1756L20.5195 19.4021V15.7693L19.0195 12.9334L17.4961 11.9256L15.1523 14.3396V16.8943L13.3242 18.6053L11.0039 18.8865L9.97265 19.4724L8.28515 18.9334L7.58203 16.4021L8.84765 14.6209V13.3084Z" fill="white"/>
<path d="M19.2539 3.0896C18.0117 2.83179 16.6524 2.9021 16.6524 2.9021C16.6524 2.9021 16.207 4.9646 13.4414 5.50366C13.4649 5.50366 17.0977 6.74585 19.2539 3.0896Z" fill="#94A6C3"/>
<path d="M20.3789 21.7927C21.8789 20.6209 23.0039 19.0037 23.5195 17.1756C23.543 17.1052 23.7539 16.9881 23.8945 16.8943C24.1289 16.7537 24.3633 16.6365 24.4101 16.449C24.5039 15.9099 24.5508 15.3474 24.5508 14.7849C24.5508 14.574 24.3398 14.3631 24.1289 14.1521C23.9648 14.0115 23.8008 13.8474 23.8008 13.7302C23.5664 11.5974 22.582 9.60525 21.0117 8.15212L20.8477 8.31618C22.3711 9.74587 23.3555 11.6912 23.5664 13.7537C23.5898 13.9412 23.7773 14.1287 23.9648 14.3162C24.1289 14.4568 24.3164 14.6677 24.3164 14.7615C24.3164 15.3006 24.2695 15.8396 24.1758 16.3787C24.1523 16.4724 23.9414 16.5662 23.7773 16.6599C23.543 16.7771 23.332 16.8943 23.2852 17.0818C22.7227 19.074 21.4336 20.8084 19.7227 21.9334C20.0273 21.2771 20.9883 19.1443 21.5039 18.0662L21.4102 14.5974L18.4336 11.7146L16.7461 11.949L14.8945 14.949C14.8945 14.949 15.7617 16.0506 14.543 17.3396C13.3477 18.6052 12.4102 18.8865 12.4102 18.8865L11.543 18.4177C11.8008 18.0896 12.3164 17.5974 12.7148 17.2693C13.3945 16.7068 14.0742 16.6599 14.0742 16.0506C14.0977 14.7849 12.7383 15.1365 12.7383 15.1365L12.2461 15.6052L12.0352 17.3396L11.0039 18.6287L10.8867 18.6052L9.19922 18.2302C9.19922 18.2302 10.2305 17.6912 10.3945 17.0818C10.5586 16.4959 10.0664 14.5506 10.043 14.4334C10.0664 14.4568 10.5352 14.8552 10.7461 15.5115C11.1211 14.4802 11.6133 13.4959 11.7539 13.4021C11.8945 13.3084 13.793 12.3006 13.793 12.3006L13.1602 13.9646L13.6289 13.7068L14.7539 10.9412C14.7539 10.9412 15.8555 10.4021 16.6758 10.4021C18.1523 10.3787 20.332 8.574 19.3477 5.33962C19.6289 5.45681 24.5039 7.89431 25.3477 12.6756C25.9805 16.3552 23.8945 19.8006 20.3789 21.7927Z" fill="#94A6C3"/>
<path d="M14.8005 3.6052C15.3395 2.97239 15.1286 2.03488 15.1286 2.03488L13.5583 4.3552C13.5349 4.3552 14.1208 4.37864 14.8005 3.6052Z" fill="#0D1928"/>
<path d="M9.52704 16.2849L9.71454 15.3474C9.71454 15.3474 8.9411 16.7068 8.87079 16.8943C8.80047 17.1052 8.91766 17.4803 9.22235 17.4568C9.52704 17.4334 9.90203 16.9881 9.90203 16.6599C9.90203 16.2381 9.52704 16.2849 9.52704 16.2849Z" fill="#0D1928"/>
<path d="M24.8195 1.80469C24.8195 1.80469 25.1711 0.960942 26.3899 1.10157C23.6477 -1.05468 20.4958 -1.2229 18.3864 -1.2229C15.4802 -1.2229 14.027 -0.632808 13.9098 -0.562496L14.3083 -1.4104C14.3083 -1.4104 11.1911 -4.66406 9.90203 -0.796869C9.57391 -1.61718 8.73015 0.0895998 8.73015 0.0895998C8.73015 0.0895998 6.83172 1.75366 7.72234 4.51929C5.54265 3.72241 2.42547 2.62085 2.30828 2.59741C2.14422 2.57397 2.09734 2.64429 2.09734 2.64429C2.09734 2.64429 2.05047 2.7146 2.19109 2.83179C2.44891 3.04272 7.37078 6.67554 8.4489 7.37866C8.21453 8.22241 8.21453 8.62085 8.4489 9.01929C8.77703 9.55835 8.80047 9.8396 8.75359 10.238C8.70672 10.6365 8.28484 14.0818 8.19109 14.5037C8.09734 14.9255 7.11297 16.4255 7.15984 16.8709C7.20672 17.3162 7.81609 19.2146 8.35515 19.4255C8.75359 19.5662 9.73797 19.8709 10.3942 19.8709C10.6286 19.8709 10.8395 19.824 10.9333 19.7302C11.3317 19.3787 11.4489 19.3084 11.7302 19.3084C11.7536 19.3084 11.777 19.3084 11.8005 19.3084C11.9177 19.3084 12.0583 19.3318 12.2223 19.3318C12.5973 19.3318 13.0895 19.2615 13.4411 18.9334C13.9567 18.4177 14.8473 17.7146 15.1286 17.3865C15.4802 16.9412 15.6677 16.3318 15.5739 15.7224C15.5036 15.1599 15.8083 14.6677 16.1598 14.1755C16.6052 13.5896 17.4255 12.5349 17.4255 12.5349C19.0427 13.7537 20.0505 15.6052 20.0505 17.6677C20.0505 21.324 16.863 24.5584 12.9255 24.5584C12.3161 24.5584 11.6945 25.1484 11.1086 25.0078C12.9133 25.6406 14.4723 24.9099 15.7145 24.9099C18.363 24.9099 18.9133 24.2771 18.9133 24.2771C18.9133 24.2771 19.277 24.5818 18.4802 25.3084C18.5036 25.3084 18.5036 25.3084 18.5036 25.3084C22.8864 24.699 25.1008 24.5584 25.1008 24.5584C25.1008 24.5584 26.1906 22.6055 25.9797 23.4023C31.8156 19.0195 29.4958 13.1912 29.4723 13.0037C29.5192 13.074 30.1051 13.7771 30.4098 14.1521C31.3473 4.49585 24.8195 1.80469 24.8195 1.80469ZM14.4723 16.8005C14.3786 16.9177 13.9802 17.2693 13.6989 17.5271C13.4177 17.7849 13.113 18.0427 12.8786 18.2771C12.7848 18.3709 12.5973 18.4177 12.3161 18.4177C12.2223 18.4177 12.1286 18.4177 12.0583 18.4177C12.0114 18.4177 11.9645 18.4177 11.9177 18.4177C11.8708 18.4177 11.8473 18.4177 11.8239 18.4177C11.7536 18.4177 11.6833 18.4177 11.613 18.4177C11.9645 17.949 12.9958 16.8709 13.3473 16.6365C13.7692 16.3552 13.9802 16.074 13.7223 15.5818C13.4645 15.0896 12.7848 15.2068 12.7848 15.2068C12.7848 15.2068 13.1833 15.0427 13.5348 15.0427C13.0895 14.9255 12.527 15.0427 12.2692 15.3005C11.988 15.5584 12.0348 16.4724 11.9177 17.0584C11.8005 17.6677 11.402 17.9724 10.7927 18.5349C10.4645 18.8396 10.2302 18.9334 10.0427 18.9334C9.64422 18.863 9.17547 18.7459 8.84734 18.6287C8.61297 18.324 8.2614 17.3162 8.16765 16.8943C8.23797 16.6599 8.51922 16.1677 8.65984 15.8865C8.94109 15.3474 9.10515 15.0427 9.15203 14.7615C9.24578 14.363 9.55047 11.9021 9.66765 10.8709C9.97234 11.2693 10.3942 11.9255 10.3005 12.3474C10.9802 11.3865 10.488 10.449 10.2536 10.074C10.0427 9.69898 9.7614 8.94898 9.99578 8.1521C10.2302 7.35523 11.0739 5.1521 11.0739 5.1521C11.0739 5.1521 11.3552 5.64429 11.7536 5.55054C12.152 5.45679 15.363 0.628661 15.363 0.628661C15.363 0.628661 16.2302 2.5271 15.3161 3.90991C14.3786 5.29273 13.4645 5.55054 13.4645 5.55054C13.4645 5.55054 14.7536 5.78491 15.9489 4.91773C16.4411 6.06616 16.9098 7.26148 16.9333 7.42554C16.863 7.5896 15.9255 9.8396 15.8317 9.98023C15.7848 10.0271 15.4567 10.1209 15.2223 10.1677C14.8239 10.2849 14.5895 10.3552 14.4958 10.4255C14.3317 10.5662 13.5817 12.6287 13.2302 13.6365C12.8083 13.7537 12.3864 13.988 12.0817 14.4568C12.2458 14.3396 12.7614 14.2693 13.1364 14.2224C13.4645 14.199 14.4723 14.738 14.7302 15.7459C14.7302 15.7693 14.7302 15.7693 14.7302 15.7927C14.777 16.1677 14.6598 16.5193 14.4723 16.8005ZM12.2692 17.0818C12.4802 16.7771 12.4567 16.2615 12.4802 16.0974C12.5036 15.9334 12.5505 15.6287 12.738 15.5818C12.9255 15.5349 13.3708 15.6052 13.3708 15.9334C13.3708 16.238 13.0427 16.3084 12.8083 16.5193C12.6442 16.6834 12.3161 17.0349 12.2692 17.0818ZM21.6208 12.6052C21.8552 11.4099 21.8786 10.3787 21.8083 9.53491C22.7223 10.7537 23.2848 12.2302 23.4489 13.7537C23.4723 13.9412 23.6598 14.1287 23.8473 14.3162C24.0114 14.4568 24.1989 14.6443 24.1989 14.7615C24.1989 15.3005 24.152 15.8396 24.0583 16.3787C24.0348 16.449 23.8239 16.5662 23.6598 16.6599C23.4255 16.7771 23.2145 16.8943 23.1677 17.0818C22.652 18.8865 21.5505 20.4802 20.0739 21.6052C22.2536 19.3318 23.3083 15.5818 21.6208 12.6052ZM20.1442 21.8162C21.6676 20.6443 22.8395 19.0037 23.3551 17.1521C23.3786 17.0818 23.5895 16.9646 23.7302 16.8709C23.9645 16.7537 24.1989 16.613 24.2458 16.4255C24.3395 15.8865 24.3864 15.324 24.3864 14.7615C24.3864 14.5505 24.1755 14.3396 23.9645 14.1287C23.8473 13.988 23.6598 13.824 23.6598 13.7068C23.4723 11.9958 22.7927 10.3787 21.738 9.04273C21.2692 6.23022 19.3942 5.36304 19.3473 5.3396C19.3942 5.40991 20.613 7.16773 19.7692 9.23023C18.902 11.3162 16.6755 10.988 16.488 11.0115C16.3005 11.0115 15.5739 11.949 14.6598 13.6833C14.5427 13.6365 14.0505 13.5193 13.488 13.613C13.9098 12.4412 14.5427 10.7771 14.6598 10.6365C14.7067 10.5896 15.0583 10.4959 15.2927 10.4255C15.738 10.3084 15.9489 10.238 16.0192 10.1443C16.0661 10.074 16.3005 9.53491 16.5348 8.97241C16.7458 8.97241 17.2848 8.92554 17.3317 8.9021C17.3786 8.85523 17.8239 7.70679 17.8239 7.56616C17.8239 7.44898 16.9098 5.17554 16.5583 4.30835C16.7223 4.12085 16.8864 3.88647 17.0505 3.62866C21.8552 4.14429 25.6052 8.22241 25.6052 13.1677C25.6052 16.9646 23.3786 20.2693 20.1442 21.8162Z" fill="#0D1928"/>
<path d="M13.9098 9.1599C14.3552 8.64428 14.1208 7.68334 13.3005 7.51928C13.5114 7.02709 13.8161 6.04272 13.8161 6.04272C13.8161 6.04272 11.4255 9.79272 11.2145 9.86303C11.0036 9.93334 10.7927 9.11303 10.7927 9.11303C10.3473 10.824 11.5427 11.0583 11.6833 10.5193C12.3395 10.3552 13.4645 9.65209 13.9098 9.1599Z" fill="#0D1928"/>
<path d="M11.8711 10.0741L13.0898 7.98813C13.0898 7.98813 13.793 8.33969 13.4414 8.90219C12.9961 9.55844 11.8711 10.0741 11.8711 10.0741Z" fill="#FFD923"/>
<path d="M26.941 19.7303C26.5895 20.199 26.191 20.6912 25.7223 21.16C28.7457 15.3475 25.8629 10.0271 25.7457 9.81621C25.9566 10.0271 26.1676 10.2615 26.3551 10.4725C28.6754 13.0506 28.9566 16.9178 26.941 19.7303Z" fill="#D82122"/>
<path d="M29.7535 12.2537C28.6988 9.41776 27.1988 7.0037 23.8941 4.82401C20.7066 2.71464 17.2848 2.8787 17.0973 2.90214C17.0738 2.90214 17.0504 2.90214 17.0504 2.90214C17.1676 2.85526 17.2848 2.83182 17.402 2.80839C18.1285 2.57401 19.066 2.38651 20.0035 2.26932C22.4879 1.91776 24.9957 2.76151 26.7066 4.5662C26.7301 4.58964 26.7301 4.58964 26.7535 4.61307C28.6988 6.67557 29.7066 9.2537 29.7535 12.2537Z" fill="#D82122"/>
<path d="M23.1441 0.652195C19.652 -0.0040549 17.402 0.32407 15.7848 0.933445C15.7379 0.745945 15.5738 0.370945 15.4332 0.0662575C14.941 0.652195 14.4254 1.35532 14.0973 1.80063C13.2066 2.41001 12.8316 2.99594 12.8316 2.99594C13.3473 1.23813 14.8473 -0.0743675 16.6754 -0.402492C17.191 -0.496242 17.7535 -0.543117 18.3629 -0.543117C19.9801 -0.51968 21.5973 -0.121242 23.1441 0.652195Z" fill="#D82122"/>
<path d="M10.2301 5.15219C7.48791 5.05844 8.40197 1.87094 8.44885 1.68344C8.44885 1.70688 8.63635 4.19126 10.2301 5.15219Z" fill="#D82122"/>
<path d="M12.9254 -0.590027C10.816 0.675598 11.2379 3.69904 11.2379 3.69904C9.22228 0.628723 12.7613 -0.519714 12.9254 -0.590027Z" fill="#D82122"/>
<path d="M9.45703 5.99591C9.59766 6.1131 9.73828 6.32404 9.57422 6.62872C9.48047 6.79279 9.33984 6.76935 9.12891 6.6756C8.84766 6.53497 7.16016 5.5506 5.63672 4.54279C7.37109 5.15216 9.12891 5.80841 9.41016 5.94904C9.41016 5.94904 9.43359 5.97247 9.45703 5.99591Z" fill="white"/>
</g>
<defs>
<radialGradient id="paint0_radial_15692_14342" cx="0" cy="0" r="1" gradientUnits="userSpaceOnUse" gradientTransform="translate(27 -3) rotate(135.971) scale(41.7253 26.3904)">
<stop stop-color="#278CE6"/>
<stop offset="1" stop-color="#278CE6" stop-opacity="0"/>
</radialGradient>
<linearGradient id="paint1_linear_15692_14342" x1="16.2885" y1="-2.69049" x2="16.2885" y2="26.6208" gradientUnits="userSpaceOnUse">
<stop stop-color="#16395C"/>
<stop offset="0.276042" stop-color="#22436A"/>
<stop offset="1" stop-color="#0D1928" stop-opacity="0"/>
</linearGradient>
<linearGradient id="paint2_linear_15692_14342" x1="16.2885" y1="-2.69049" x2="16.2885" y2="26.6208" gradientUnits="userSpaceOnUse">
<stop stop-color="#16395C"/>
<stop offset="0.276042" stop-color="#22436A"/>
<stop offset="1" stop-color="#0D1928" stop-opacity="0"/>
</linearGradient>
<linearGradient id="paint3_linear_15692_14342" x1="16.2885" y1="-2.69049" x2="16.2885" y2="26.6208" gradientUnits="userSpaceOnUse">
<stop stop-color="#16395C"/>
<stop offset="0.276042" stop-color="#22436A"/>
<stop offset="1" stop-color="#0D1928" stop-opacity="0"/>
</linearGradient>
<linearGradient id="paint4_linear_15692_14342" x1="16.2885" y1="-2.69049" x2="16.2885" y2="26.6208" gradientUnits="userSpaceOnUse">
<stop stop-color="#16395C"/>
<stop offset="0.276042" stop-color="#22436A"/>
<stop offset="1" stop-color="#0D1928" stop-opacity="0"/>
</linearGradient>
<linearGradient id="paint5_linear_15692_14342" x1="-0.352325" y1="5.95313" x2="24.6789" y2="17.6953" gradientUnits="userSpaceOnUse">
<stop stop-color="#213E61"/>
<stop offset="0.291268" stop-color="#2B6FB3"/>
<stop offset="0.613602" stop-color="#214167"/>
<stop offset="0.719487" stop-color="#3187DB"/>
<stop offset="0.829" stop-color="#2B6DAF"/>
<stop offset="1" stop-color="#224167"/>
</linearGradient>
<linearGradient id="paint6_linear_15692_14342" x1="-0.352325" y1="5.95313" x2="24.6789" y2="17.6953" gradientUnits="userSpaceOnUse">
<stop stop-color="#213E61"/>
<stop offset="0.291268" stop-color="#2B6FB3"/>
<stop offset="0.613602" stop-color="#214167"/>
<stop offset="0.719487" stop-color="#3187DB"/>
<stop offset="0.829" stop-color="#2B6DAF"/>
<stop offset="1" stop-color="#224167"/>
</linearGradient>
<linearGradient id="paint7_linear_15692_14342" x1="-0.352325" y1="5.95313" x2="24.6789" y2="17.6953" gradientUnits="userSpaceOnUse">
<stop stop-color="#213E61"/>
<stop offset="0.291268" stop-color="#2B6FB3"/>
<stop offset="0.613602" stop-color="#214167"/>
<stop offset="0.719487" stop-color="#3187DB"/>
<stop offset="0.829" stop-color="#2B6DAF"/>
<stop offset="1" stop-color="#224167"/>
</linearGradient>
<linearGradient id="paint8_linear_15692_14342" x1="-0.352325" y1="5.95313" x2="24.6789" y2="17.6953" gradientUnits="userSpaceOnUse">
<stop stop-color="#213E61"/>
<stop offset="0.291268" stop-color="#2B6FB3"/>
<stop offset="0.613602" stop-color="#214167"/>
<stop offset="0.719487" stop-color="#3187DB"/>
<stop offset="0.829" stop-color="#2B6DAF"/>
<stop offset="1" stop-color="#224167"/>
</linearGradient>
<clipPath id="clip0_15692_14342">
<rect width="24" height="24" rx="5.625" fill="white"/>
</clipPath>
</defs>
</svg>
