<svg width="24" height="24" viewBox="0 0 24 24" fill="none" xmlns="http://www.w3.org/2000/svg">
<rect x="1" y="1" width="10" height="10" rx="2.5" fill="#FFF0E1"/>
<g clip-path="url(#clip0_15684_24036)">
<g clip-path="url(#clip1_15684_24036)">
<path fill-rule="evenodd" clip-rule="evenodd" d="M7.71094 8.91362L6.66152 9.19529V8.82488L6.57787 8.73999H5.97712V9.17213V9.47695H6.6197L7.41056 9.12969L7.71094 8.91362Z" fill="#CDBDB2"/>
<path fill-rule="evenodd" clip-rule="evenodd" d="M4.28899 8.91362L5.3156 9.19529V8.82488L5.40305 8.73999H6V9.17213V9.47695H5.35742L4.56656 9.12969L4.28899 8.91362Z" fill="#CDBDB2"/>
<path fill-rule="evenodd" clip-rule="evenodd" d="M6.57846 8.11097L6.66211 8.82478L6.55565 8.73989H5.44539L5.31612 8.82478L5.40357 8.11097L5.57467 8.00293L6.43017 8.02222L6.57846 8.11097Z" fill="#393939"/>
<path fill-rule="evenodd" clip-rule="evenodd" d="M7.15625 3.26855L6.64295 4.48396L6.40721 8.02214H5.57452L5.31597 4.48396L4.84449 3.26855H7.15625Z" fill="#F89C35"/>
<path fill-rule="evenodd" clip-rule="evenodd" d="M9.39925 5.93862L10 7.69807L8.50192 7.60932H7.53995V6.84921L7.58178 5.29041L7.79851 5.46018L9.39925 5.93862Z" fill="#F89D35"/>
<path fill-rule="evenodd" clip-rule="evenodd" d="M8.26562 6.1355L6.51279 6.17794L6.70671 7.08853L7.5394 6.87246L8.26562 6.1355Z" fill="#D87C30"/>
<path fill-rule="evenodd" clip-rule="evenodd" d="M8.26562 6.15466L7.5394 6.84918V7.5437L8.26562 6.15466Z" fill="#EA8D3A"/>
<path fill-rule="evenodd" clip-rule="evenodd" d="M7.53906 6.87231L6.68356 7.08839L6.406 8.02213L6.59991 8.13016L7.53906 7.56683V6.87231Z" fill="#F89D35"/>
<path fill-rule="evenodd" clip-rule="evenodd" d="M7.53984 7.56689L7.71094 8.91349L6.57787 8.11093L7.53984 7.56689Z" fill="#EB8F35"/>
<path fill-rule="evenodd" clip-rule="evenodd" d="M6.51385 6.17786L6.4075 8.02219L6.72656 7.08073L6.51385 6.17786Z" fill="#EA8E3A"/>
<path fill-rule="evenodd" clip-rule="evenodd" d="M8.52539 7.59004L7.54061 7.56689L7.71171 8.91349L8.52539 7.59004Z" fill="#D87C30"/>
<path fill-rule="evenodd" clip-rule="evenodd" d="M9.52852 9.50001L7.71105 8.91353L8.52473 7.59009L10 7.69812L9.52852 9.50001Z" fill="#EB8F35"/>
<path fill-rule="evenodd" clip-rule="evenodd" d="M6.64207 4.48401L7.56221 5.26727L8.26562 6.13542L6.51279 6.20101L6.64207 4.48401Z" fill="#E8821E"/>
<path fill-rule="evenodd" clip-rule="evenodd" d="M7.71094 8.91352L6.57787 8.11096L6.66152 8.80548V9.19518L7.43337 9.0447L7.71094 8.91352Z" fill="#DFCEC3"/>
<path fill-rule="evenodd" clip-rule="evenodd" d="M4.28829 8.91352L5.40234 8.11096L5.31489 8.80548V9.19518L4.54684 9.0447L4.28829 8.91352Z" fill="#DFCEC3"/>
<path fill-rule="evenodd" clip-rule="evenodd" d="M6.98508 6.5675L6.74934 7.0691L7.58203 6.84917L6.98508 6.5675Z" fill="#393939"/>
<path fill-rule="evenodd" clip-rule="evenodd" d="M9.55273 2.25L6.64402 4.48403L7.13451 3.26863L9.55273 2.25Z" fill="#E88F35"/>
<path fill-rule="evenodd" clip-rule="evenodd" d="M9.55152 2.25L9.93555 3.44226L9.72262 4.74641L9.87091 4.83129L9.65798 5.02807L9.82908 5.17855L9.59335 5.39462L9.74163 5.52581L9.39943 5.95795L7.79489 5.46022C7.01163 4.82357 6.6238 4.49947 6.63901 4.48403C6.65422 4.4686 7.62759 3.72392 9.55152 2.25Z" fill="#8E5A30"/>
<path fill-rule="evenodd" clip-rule="evenodd" d="M2.60075 5.93862L2 7.69807L3.49808 7.60932H4.46005V6.84921L4.41822 5.29041L4.2053 5.46018L2.60075 5.93862Z" fill="#F89D35"/>
<path fill-rule="evenodd" clip-rule="evenodd" d="M3.73438 6.1355L5.48721 6.17794L5.29709 7.08853L4.4606 6.87246L3.73438 6.1355Z" fill="#D87C30"/>
<path fill-rule="evenodd" clip-rule="evenodd" d="M3.73438 6.15466L4.4606 6.84918V7.5437L3.73438 6.15466Z" fill="#EA8D3A"/>
<path fill-rule="evenodd" clip-rule="evenodd" d="M4.46094 6.87231L5.31644 7.08839L5.594 8.02213L5.40389 8.13016L4.46094 7.56683V6.87231Z" fill="#F89D35"/>
<path fill-rule="evenodd" clip-rule="evenodd" d="M4.46016 7.56689L4.28906 8.91349L5.40312 8.13023L4.46016 7.56689Z" fill="#EB8F35"/>
<path fill-rule="evenodd" clip-rule="evenodd" d="M5.48615 6.17786L5.5925 8.02219L5.27344 7.08073L5.48615 6.17786Z" fill="#EA8E3A"/>
<path fill-rule="evenodd" clip-rule="evenodd" d="M3.47656 7.59004L4.46134 7.56689L4.29024 8.91349L3.47656 7.59004Z" fill="#D87C30"/>
<path fill-rule="evenodd" clip-rule="evenodd" d="M2.47148 9.50001L4.28895 8.91353L3.47527 7.59009L2 7.69812L2.47148 9.50001Z" fill="#EB8F35"/>
<path fill-rule="evenodd" clip-rule="evenodd" d="M5.35793 4.48401L4.43779 5.26727L3.73438 6.13542L5.48721 6.20101L5.35793 4.48401Z" fill="#E8821E"/>
<path fill-rule="evenodd" clip-rule="evenodd" d="M5.01492 6.5675L5.25066 7.0691L4.41797 6.84917L5.01492 6.5675Z" fill="#393939"/>
<path fill-rule="evenodd" clip-rule="evenodd" d="M2.44922 2.25L5.35793 4.48403L4.86744 3.26863L2.44922 2.25Z" fill="#E88F35"/>
<path fill-rule="evenodd" clip-rule="evenodd" d="M2.44848 2.25L2.06445 3.44226L2.27738 4.74641L2.12909 4.83129L2.34202 5.02807L2.17092 5.17855L2.40665 5.39462L2.25837 5.52581L2.60057 5.95795L4.20511 5.46022C4.98837 4.82357 5.3762 4.49947 5.36099 4.48403C5.34578 4.4686 4.37621 3.72392 2.44848 2.25Z" fill="#8E5A30"/>
</g>
</g>
<rect x="13" y="1" width="10" height="10" rx="2.5" fill="#FFD5C0"/>
<g clip-path="url(#clip2_15684_24036)">
<path d="M21.1587 3.9166L21.3467 3.45565C21.3467 3.45565 21.1101 3.20091 20.819 2.90978C20.5279 2.61865 19.9153 2.78848 19.9153 2.78848L19.2178 2H17.9926H16.7614L16.0639 2.79454C16.0639 2.79454 15.4513 2.62472 15.1602 2.91585C14.869 3.20697 14.6325 3.46171 14.6325 3.46171L14.8205 3.92267L14.584 4.60197C14.584 4.60197 15.2875 7.25853 15.3664 7.58605C15.5302 8.2229 15.6393 8.47157 16.1003 8.79909C16.5612 9.12661 17.3922 9.68461 17.5317 9.76952C17.6651 9.85444 17.841 10 17.9926 10C18.1443 10 18.3141 9.85444 18.4536 9.76952C18.587 9.68461 19.424 9.12055 19.885 8.79909C20.3459 8.47763 20.4551 8.22896 20.6189 7.58605C20.7038 7.25853 21.4013 4.60197 21.4013 4.60197L21.1587 3.9166Z" fill="url(#paint0_linear_15684_24036)"/>
<path d="M19.722 3.29788C19.722 3.29788 20.6197 4.38355 20.6197 4.62009C20.6197 4.85664 20.5044 4.91122 20.3892 5.03253C20.2739 5.15383 19.7766 5.6815 19.7159 5.74822C19.6492 5.81494 19.5219 5.91805 19.5946 6.10607C19.6735 6.28802 19.7887 6.52457 19.6613 6.76717C19.534 7.00372 19.3156 7.16748 19.1761 7.13715C19.0366 7.11289 18.703 6.937 18.5817 6.85815C18.4604 6.77931 18.0783 6.46391 18.0783 6.34261C18.0783 6.22131 18.4786 6.00296 18.5514 5.95444C18.6242 5.90592 18.9578 5.71183 18.9639 5.63905C18.9699 5.56627 18.9699 5.542 18.8668 5.35398C18.7698 5.16596 18.5878 4.91729 18.6181 4.75353C18.6485 4.58977 18.9335 4.50486 19.1397 4.42601C19.346 4.34716 19.7402 4.2016 19.7887 4.17733C19.8372 4.15307 19.8251 4.13488 19.6735 4.11668C19.5219 4.10455 19.1034 4.0439 18.9093 4.09849C18.7152 4.15307 18.3937 4.23192 18.3634 4.27438C18.3391 4.31683 18.3149 4.31683 18.3391 4.46846C18.3634 4.61403 18.509 5.32972 18.5211 5.45709C18.5332 5.58446 18.5635 5.66937 18.424 5.6997C18.2906 5.73003 18.0601 5.78461 17.9813 5.78461C17.9024 5.78461 17.672 5.73003 17.5385 5.6997C17.4051 5.66937 17.4294 5.58446 17.4415 5.45709C17.4536 5.32972 17.5931 4.62009 17.6234 4.46846C17.6477 4.3229 17.6295 4.31683 17.5992 4.27438C17.5749 4.23192 17.2474 4.15307 17.0533 4.09849C16.8592 4.0439 16.4407 4.09849 16.2891 4.11668C16.1375 4.12881 16.1253 4.15307 16.1739 4.17733C16.2224 4.2016 16.6166 4.34716 16.8228 4.42601C17.0291 4.50486 17.3141 4.58977 17.3444 4.75353C17.3748 4.91729 17.1989 5.16596 17.0958 5.35398C16.9987 5.542 16.9927 5.5602 16.9987 5.63905C17.0048 5.71183 17.3384 5.90592 17.4112 5.95444C17.4839 6.00296 17.8842 6.22131 17.8842 6.34261C17.8842 6.46391 17.5021 6.77931 17.3808 6.85815C17.2595 6.937 16.932 7.10683 16.7864 7.13715C16.6469 7.16141 16.4286 7.00372 16.3012 6.76717C16.1739 6.53063 16.2891 6.29409 16.3679 6.10607C16.4468 5.92411 16.3134 5.821 16.2466 5.74822C16.1981 5.67544 15.7068 5.14777 15.5916 5.03253C15.4764 4.91122 15.3672 4.85057 15.3672 4.62009C15.3672 4.38962 16.2648 3.29788 16.2648 3.29788C16.2648 3.29788 17.023 3.44344 17.1261 3.44344C17.2292 3.44344 17.4476 3.35853 17.6538 3.29181C17.86 3.2251 17.9934 3.2251 17.9934 3.2251C17.9934 3.2251 18.1269 3.2251 18.3331 3.29181C18.5393 3.35853 18.7576 3.44344 18.8607 3.44344C18.9639 3.44344 19.722 3.29788 19.722 3.29788ZM19.0488 7.45254C19.1034 7.48893 19.073 7.55565 19.0184 7.58598C18.9699 7.62237 18.2845 8.15004 18.2239 8.21069C18.1572 8.27134 18.0601 8.36232 17.9934 8.36232C17.9267 8.36232 17.8297 8.26528 17.7629 8.21069C17.6962 8.15004 17.0169 7.62237 16.9684 7.58598C16.9199 7.54959 16.8835 7.48287 16.9381 7.45254C16.9927 7.41615 17.1686 7.33124 17.4051 7.20387C17.6477 7.0765 17.9449 6.97339 17.9934 6.97339C18.0419 6.97339 18.3391 7.0765 18.5817 7.20387C18.8183 7.33124 18.9881 7.42222 19.0488 7.45254Z" fill="white"/>
</g>
<g clip-path="url(#clip3_15684_24036)">
<path d="M20.5 13H15.5C14.1193 13 13 14.1193 13 15.5V20.5C13 21.8807 14.1193 23 15.5 23H20.5C21.8807 23 23 21.8807 23 20.5V15.5C23 14.1193 21.8807 13 20.5 13Z" fill="#AB9FF2"/>
<path fill-rule="evenodd" clip-rule="evenodd" d="M17.347 19.4177C16.9745 19.9884 16.3505 20.7106 15.52 20.7106C15.1275 20.7106 14.75 20.549 14.75 19.847C14.75 18.0592 17.1909 15.2916 19.4557 15.2916C20.7442 15.2916 21.2575 16.1855 21.2575 17.2006C21.2575 18.5036 20.412 19.9935 19.5715 19.9935C19.3048 19.9935 19.1739 19.847 19.1739 19.6147C19.1739 19.5541 19.184 19.4884 19.2041 19.4177C18.9172 19.9076 18.3636 20.3621 17.8452 20.3621C17.4678 20.3621 17.2765 20.1248 17.2765 19.7915C17.2765 19.6703 17.3017 19.544 17.347 19.4177ZM19.2979 17.1654C19.2979 17.4612 19.1234 17.6091 18.9281 17.6091C18.73 17.6091 18.5584 17.4612 18.5584 17.1654C18.5584 16.8696 18.73 16.7217 18.9281 16.7217C19.1234 16.7217 19.2979 16.8696 19.2979 17.1654ZM20.407 17.1654C20.407 17.4612 20.2325 17.6091 20.0373 17.6091C19.8391 17.6091 19.6675 17.4612 19.6675 17.1654C19.6675 16.8697 19.8391 16.7218 20.0373 16.7218C20.2325 16.7218 20.407 16.8697 20.407 17.1654Z" fill="#FFFDF8"/>
</g>
<g clip-path="url(#clip4_15684_24036)">
<path d="M8.5 13H3.5C2.11929 13 1 14.1193 1 15.5V20.5C1 21.8807 2.11929 23 3.5 23H8.5C9.88071 23 11 21.8807 11 20.5V15.5C11 14.1193 9.88071 13 8.5 13Z" fill="#797CFF"/>
<path d="M9.32786 18.3729C9.59742 17.7749 8.26483 16.1042 6.99176 15.4081C6.18931 14.8689 5.35316 14.943 5.1838 15.1797C4.81216 15.6993 6.41444 16.1396 7.48602 16.6534C7.25568 16.7527 7.03861 16.931 6.91095 17.159C6.51147 16.7259 5.63464 16.3529 4.60576 16.6534C3.91242 16.8558 3.33621 17.3331 3.1135 18.0541C3.05939 18.0302 2.99948 18.0169 2.93644 18.0169C2.6954 18.0169 2.5 18.211 2.5 18.4503C2.5 18.6897 2.6954 18.8837 2.93644 18.8837C2.98112 18.8837 3.12082 18.854 3.12082 18.854L5.35316 18.8701C4.46039 20.2765 3.75486 20.4821 3.75486 20.7258C3.75486 20.9695 4.42993 20.9034 4.6834 20.8126C5.89681 20.3778 7.20007 19.0227 7.4237 18.6327C8.36285 18.749 9.1521 18.7628 9.32786 18.3729Z" fill="url(#paint1_linear_15684_24036)"/>
<path fill-rule="evenodd" clip-rule="evenodd" d="M7.48519 16.6534C7.53485 16.634 7.52699 16.5612 7.51336 16.504C7.482 16.3725 6.94113 15.8421 6.43324 15.6045C5.7412 15.2808 5.2316 15.2975 5.15625 15.4467C5.29718 15.7336 5.95077 16.003 6.63339 16.2844C6.92461 16.4044 7.22096 16.5267 7.48519 16.6534Z" fill="url(#paint2_linear_15684_24036)"/>
<path fill-rule="evenodd" clip-rule="evenodd" d="M6.60772 19.5413C6.46776 19.4882 6.30966 19.4395 6.12991 19.3952C6.32156 19.0547 6.36177 18.5505 6.18078 18.2317C5.92674 17.7844 5.60787 17.5463 4.86688 17.5463C4.45932 17.5463 3.36204 17.6826 3.34256 18.5922C3.34051 18.6877 3.34251 18.7752 3.34947 18.8556L5.35321 18.87C5.08306 19.2956 4.83007 19.6112 4.60858 19.8512C4.87452 19.9189 5.09397 19.9757 5.29546 20.0279C5.48661 20.0774 5.66161 20.1227 5.84474 20.1691C6.12103 19.9692 6.38075 19.7512 6.60772 19.5413Z" fill="url(#paint3_linear_15684_24036)"/>
<path d="M3.08652 18.7622C3.16837 19.4532 3.56383 19.724 4.37192 19.8041C5.18001 19.8843 5.64353 19.8305 6.26064 19.8863C6.77605 19.9328 7.23626 20.1937 7.40698 20.1035C7.56063 20.0224 7.47467 19.7293 7.26906 19.5413C7.00258 19.2976 6.63374 19.1281 5.98474 19.068C6.11408 18.7163 6.07784 18.2232 5.87696 17.955C5.58652 17.567 5.05041 17.3917 4.37192 17.4683C3.66304 17.5484 2.98379 17.8949 3.08652 18.7622Z" fill="url(#paint4_linear_15684_24036)"/>
</g>
<defs>
<linearGradient id="paint0_linear_15684_24036" x1="14.5839" y1="5.99979" x2="21.4013" y2="5.99979" gradientUnits="userSpaceOnUse">
<stop stop-color="#FF5500"/>
<stop offset="0.4099" stop-color="#FF5500"/>
<stop offset="0.582" stop-color="#FF2000"/>
<stop offset="1" stop-color="#FF2000"/>
</linearGradient>
<linearGradient id="paint1_linear_15684_24036" x1="4.52502" y1="17.8433" x2="9.26489" y2="19.1968" gradientUnits="userSpaceOnUse">
<stop stop-color="white"/>
<stop offset="1" stop-color="white"/>
</linearGradient>
<linearGradient id="paint2_linear_15684_24036" x1="8.47011" y1="17.7537" x2="5.07036" y2="14.3219" gradientUnits="userSpaceOnUse">
<stop stop-color="#8697FF"/>
<stop offset="1" stop-color="#8697FF" stop-opacity="0"/>
</linearGradient>
<linearGradient id="paint3_linear_15684_24036" x1="6.70296" y1="19.66" x2="3.42564" y2="17.7627" gradientUnits="userSpaceOnUse">
<stop stop-color="#8697FF"/>
<stop offset="1" stop-color="#8697FF" stop-opacity="0"/>
</linearGradient>
<linearGradient id="paint4_linear_15684_24036" x1="4.80804" y1="17.8082" x2="7.01195" y2="20.628" gradientUnits="userSpaceOnUse">
<stop stop-color="white"/>
<stop offset="0.983895" stop-color="#D1D8FF"/>
</linearGradient>
<clipPath id="clip0_15684_24036">
<rect width="8" height="8" fill="white" transform="translate(2 2)"/>
</clipPath>
<clipPath id="clip1_15684_24036">
<rect width="8" height="7.25" fill="white" transform="matrix(-1 0 0 1 10 2.25)"/>
</clipPath>
<clipPath id="clip2_15684_24036">
<rect width="8" height="8" fill="white" transform="translate(14 2)"/>
</clipPath>
<clipPath id="clip3_15684_24036">
<rect width="10" height="10" fill="white" transform="translate(13 13)"/>
</clipPath>
<clipPath id="clip4_15684_24036">
<rect width="10" height="10" fill="white" transform="translate(1 13)"/>
</clipPath>
</defs>
</svg>
