<?xml version="1.0" encoding="UTF-8"?><svg id="Layer_1" xmlns="http://www.w3.org/2000/svg" viewBox="0 0 349.84 800.14"><g id="Page-1"><g id="Icon-Set"><path id="arrow-up-down" d="M306.87,609.57l-106.8,106.25V84.32l106.8,106.25c9.83,10,25.75,10,35.6,0,9.83-9.75,9.83-25.5,0-35.5L193.97,7.07C188.72,1.82,181.77-.43,174.89,.07c-6.85-.5-13.8,1.75-19.05,7L7.37,155.07c-9.83,10-9.83,25.75,0,35.5,9.82,10,25.75,10,35.6,0l106.77-106.25V715.82l-106.77-106.25c-9.85-10-25.78-10-35.6,0-9.83,9.75-9.83,25.5,0,35.5l148.47,148c5.25,5.25,12.2,7.5,19.05,7,6.88,.5,13.83-1.75,19.08-7l148.5-148c9.83-10,9.83-25.75,0-35.5-9.85-10-25.77-10-35.6,0" fill-rule="evenodd"/></g></g></svg>